<svg xmlns="http://www.w3.org/2000/svg" viewBox="0 0 146.69 136.4"><defs><style>.cls-1{fill:#fe460b;}</style></defs><g id="Layer_2" data-name="Layer 2"><g id="Layer_1-2" data-name="Layer 1"><path class="cls-1" d="M89.5,16.87a16.83,16.83,0,0,1-3.43,10.87,12.75,12.75,0,0,1-10.58,5.14,32.21,32.21,0,0,1-4.29-.42A31.23,31.23,0,0,0,66.91,32a37.47,37.47,0,0,0-23.73,8.29Q32,49.47,32,62.34v56.9q0,7.73-4.72,11.87A16.56,16.56,0,0,1,16,135.25a15.28,15.28,0,0,1-10.86-4Q0,127,0,119.24V18.87A15,15,0,0,1,4.91,7.43,16.75,16.75,0,0,1,16.73,2.86,13.57,13.57,0,0,1,27.55,8.29Q32,13.74,32,23.73v.58Q36.86,8.86,51.94,3.43A50.17,50.17,0,0,1,69,0,34,34,0,0,1,76.7.86Q89.5,4,89.5,16.87Z"/><path d="M146.69,119.24a17.18,17.18,0,0,1-29.31,12.15,17.18,17.18,0,1,1,29.31-12.15Z"/></g></g></svg>